<?xml version="1.0" standalone="no"?>
<!DOCTYPE svg PUBLIC "-//W3C//DTD SVG 20010904//EN"
 "http://www.w3.org/TR/2001/REC-SVG-20010904/DTD/svg10.dtd">
<svg version="1.0" xmlns="http://www.w3.org/2000/svg"
 width="203.000000pt" height="198.000000pt" viewBox="0 0 203.000000 198.000000"
 preserveAspectRatio="xMidYMid meet">

<g transform="translate(0.000000,198.000000) scale(0.100000,-0.100000)"
fill="#000000" stroke="none">
<path d="M971 1660 c-301 -64 -538 -279 -631 -575 -30 -94 -38 -290 -17 -391
19 -87 58 -188 105 -269 50 -85 200 -231 287 -278 68 -38 227 -97 259 -97 14
0 16 30 16 280 l0 279 -102 3 -103 3 0 120 0 120 101 3 102 3 5 132 c3 89 10
147 21 179 24 65 85 130 148 159 47 21 67 24 173 23 67 0 129 -3 138 -7 15 -5
17 -22 17 -112 l0 -105 -75 0 c-132 0 -155 -26 -155 -175 l0 -95 110 0 c128 0
119 15 94 -146 l-17 -104 -93 0 -94 0 0 -280 c0 -233 2 -280 14 -280 27 0 152
43 211 72 208 104 355 279 427 508 20 65 23 96 23 225 0 129 -3 160 -23 225
-85 269 -273 463 -533 551 -84 28 -109 32 -229 35 -74 2 -155 -1 -179 -6z"/>
</g>
</svg>
